<svg width="17" height="22" viewBox="0 0 17 22" fill="none" xmlns="http://www.w3.org/2000/svg">
<path d="M14.6949 22H6.72159C6.4808 22 6.27225 21.8299 6.21942 21.591L2.29229 3.78152C2.25799 3.62612 2.29469 3.46339 2.39279 3.33908C2.49021 3.21511 2.63805 3.14282 2.79412 3.14282H13.0049C13.2457 3.14282 13.4542 3.31289 13.507 3.55174L16.943 19.1166C17.0987 19.8213 16.932 20.5508 16.4861 21.1182C16.0457 21.6787 15.3929 22 14.6949 22ZM7.1332 20.9523H14.6949C15.0787 20.9523 15.4389 20.7743 15.6831 20.4635C15.9325 20.146 16.0258 19.7389 15.939 19.3463L12.5932 4.19044H3.43692L7.1332 20.9523Z" fill="black"/>
<path d="M10.2193 22H2.30429C1.64537 22 1.01629 21.7073 0.578262 21.1968C0.134063 20.6796 -0.0689997 19.9945 0.0208691 19.3174L2.10329 3.59679C2.13759 3.33663 2.3554 3.14282 2.613 3.14282H12.9634C13.2474 3.14282 13.4779 3.37714 13.4779 3.66663C13.4779 3.95612 13.2474 4.19044 12.9634 4.19044H3.06303L1.0403 19.4577C0.990561 19.8352 1.10444 20.2176 1.35278 20.5075C1.59906 20.7942 1.93693 20.9523 2.30429 20.9523H10.2193C10.5033 20.9523 10.7338 21.1867 10.7338 21.4762C10.7338 21.7656 10.5033 22 10.2193 22Z" fill="black"/>
<path d="M10.1942 4.01587C9.91023 4.01587 9.67972 3.78156 9.67972 3.49206V2.4406C9.67972 1.69854 8.93367 1.04762 8.2504 1.04762H7.35514C6.67666 1.04762 6.24961 1.68562 6.24961 2.4406V3.49206C6.24961 3.78156 6.01911 4.01587 5.7351 4.01587C5.45108 4.01587 5.22058 3.78156 5.22058 3.49206V2.4406C5.22058 1.11781 6.11893 0 7.35514 0H8.2504C9.50341 0 10.7088 1.11781 10.7088 2.4406V3.49206C10.7088 3.78156 10.4783 4.01587 10.1942 4.01587Z" fill="black"/>
</svg>
