<svg width="25" height="22" viewBox="0 0 25 22" fill="none" xmlns="http://www.w3.org/2000/svg">
<path d="M23.0705 11.3295C25.6432 8.73568 25.6432 4.51809 23.0705 1.94536C20.4978 -0.648454 16.3146 -0.648454 13.7419 1.94536L12.4869 3.21064L11.232 1.94536C8.65928 -0.648454 4.47605 -0.648454 1.92428 1.94536C0.669316 3.18955 0 4.87659 0 6.64798C0 8.41936 0.690232 10.0853 1.92428 11.3506L12.4869 22L23.0705 11.3295ZM1.65237 6.64798C1.65237 5.31944 2.15436 4.07525 3.09559 3.14738C4.05773 2.17733 5.3127 1.69231 6.56766 1.69231C7.82263 1.69231 9.0776 2.17733 10.0397 3.14738L12.4869 5.59358L14.9341 3.12629C16.8584 1.1862 19.9749 1.1862 21.8783 3.12629C22.7986 4.05416 23.3215 5.29835 23.3215 6.62689C23.3215 7.95543 22.8195 9.19962 21.8783 10.1275L12.4869 19.6171L3.09559 10.1486C2.17528 9.19962 1.65237 7.95543 1.65237 6.64798Z" fill="black"/>
</svg>
