<svg width="19" height="22" viewBox="0 0 19 22" fill="none" xmlns="http://www.w3.org/2000/svg">
<path d="M2.36969 7.16475C2.36969 11.1054 5.5783 14.3295 9.49993 14.3295C13.4216 14.3295 16.6302 11.1054 16.6302 7.16475C16.6302 3.22414 13.4216 0 9.49993 0C5.5783 0 2.36969 3.22414 2.36969 7.16475ZM14.9525 7.16475C14.9525 10.1782 12.4988 12.6437 9.49993 12.6437C6.50104 12.6437 4.04739 10.1782 4.04739 7.16475C4.04739 4.15134 6.50104 1.68582 9.49993 1.68582C12.4988 1.68582 14.9525 4.15134 14.9525 7.16475Z" fill="black"/>
<path d="M1.19536 22C3.41832 19.7663 6.3543 18.5441 9.5 18.5441C12.6457 18.5441 15.5817 19.7663 17.8046 22L19 20.7989C16.4625 18.2702 13.0861 16.8583 9.5 16.8583C5.91391 16.8583 2.53753 18.2702 0 20.7989L1.19536 22Z" fill="black"/>
</svg>
